<?xml version="1.0" encoding="UTF-8" standalone="no"?>
<!DOCTYPE svg PUBLIC "-//W3C//DTD SVG 1.0//EN" "http://www.w3.org/TR/2001/PR-SVG-20010719/DTD/svg10.dtd">
<svg width="69cm" height="36cm" viewBox="-251 37 1367 707" xmlns="http://www.w3.org/2000/svg" xmlns:xlink="http://www.w3.org/1999/xlink">
  <g>
    <rect style="fill: #ffffff" x="235" y="61" width="117.8" height="28"/>
    <rect style="fill: none; fill-opacity:0; stroke-width: 2; stroke: #000000" x="235" y="61" width="117.8" height="28"/>
    <text font-size="16" style="fill: #000000;text-anchor:middle;font-family:sans-serif;font-style:normal;font-weight:700" x="293.9" y="80">Objective</text>
    <rect style="fill: #ffffff" x="235" y="89" width="117.8" height="52"/>
    <rect style="fill: none; fill-opacity:0; stroke-width: 2; stroke: #000000" x="235" y="89" width="117.8" height="52"/>
    <text font-size="12.8" style="fill: #000000;text-anchor:start;font-family:monospace;font-style:normal;font-weight:normal" x="238" y="103">+scene: Scene</text>
    <text font-size="12.8" style="fill: #000000;text-anchor:start;font-family:monospace;font-style:normal;font-weight:normal" x="238" y="119">+goal: Goal</text>
    <text font-size="12.8" style="fill: #000000;text-anchor:start;font-family:monospace;font-style:normal;font-weight:normal" x="238" y="135">+weight: Float</text>
    <rect style="fill: #ffffff" x="235" y="141" width="117.8" height="8"/>
    <rect style="fill: none; fill-opacity:0; stroke-width: 2; stroke: #000000" x="235" y="141" width="117.8" height="8"/>
  </g>
  <g>
    <polyline style="fill: none; fill-opacity:0; stroke-width: 2; stroke-dasharray: 8; stroke: #000000" points="293.9,149 293.9,219.875 172.404,219.875 172.404,292.045 "/>
    <polyline style="fill: none; fill-opacity:0; stroke-width: 2; stroke: #000000" points="167.404,279.397 172.404,295.397 177.404,279.397 "/>
  </g>
  <g>
    <rect style="fill: #ffffff" x="495" y="199" width="102.4" height="28"/>
    <rect style="fill: none; fill-opacity:0; stroke-width: 2; stroke: #000000" x="495" y="199" width="102.4" height="28"/>
    <text font-size="16" style="fill: #000000;text-anchor:middle;font-family:sans-serif;font-style:normal;font-weight:700" x="546.2" y="218">Goal</text>
    <rect style="fill: #ffffff" x="495" y="227" width="102.4" height="20"/>
    <rect style="fill: none; fill-opacity:0; stroke-width: 2; stroke: #000000" x="495" y="227" width="102.4" height="20"/>
    <text font-size="12.8" style="fill: #000000;text-anchor:start;font-family:monospace;font-style:normal;font-weight:normal" x="498" y="241">+TypeID: int</text>
    <rect style="fill: #ffffff" x="495" y="247" width="102.4" height="8"/>
    <rect style="fill: none; fill-opacity:0; stroke-width: 2; stroke: #000000" x="495" y="247" width="102.4" height="8"/>
  </g>
  <g>
    <polyline style="fill: none; fill-opacity:0; stroke-width: 2; stroke-dasharray: 8; stroke: #000000" points="293.9,149 293.9,170 546.2,170 546.2,192.295 "/>
    <polyline style="fill: none; fill-opacity:0; stroke-width: 2; stroke: #000000" points="541.2,179.647 546.2,195.647 551.2,179.647 "/>
  </g>
  <g>
    <rect style="fill: #ffffff" x="393" y="310" width="106.45" height="28"/>
    <rect style="fill: none; fill-opacity:0; stroke-width: 2; stroke: #000000" x="393" y="310" width="106.45" height="28"/>
    <text font-size="16" style="fill: #000000;text-anchor:middle;font-family:sans-serif;font-style:normal;font-weight:700" x="446.225" y="329">ShapeGoal</text>
    <rect style="fill: #ffffff" x="393" y="338" width="106.45" height="8"/>
    <rect style="fill: none; fill-opacity:0; stroke-width: 2; stroke: #000000" x="393" y="338" width="106.45" height="8"/>
    <rect style="fill: #ffffff" x="393" y="346" width="106.45" height="8"/>
    <rect style="fill: none; fill-opacity:0; stroke-width: 2; stroke: #000000" x="393" y="346" width="106.45" height="8"/>
  </g>
  <g>
    <rect style="fill: #ffffff" x="639" y="311" width="106.15" height="28"/>
    <rect style="fill: none; fill-opacity:0; stroke-width: 2; stroke: #000000" x="639" y="311" width="106.15" height="28"/>
    <text font-size="16" style="fill: #000000;text-anchor:middle;font-family:sans-serif;font-style:normal;font-weight:700" x="692.075" y="330">ImageGoal</text>
    <rect style="fill: #ffffff" x="639" y="339" width="106.15" height="8"/>
    <rect style="fill: none; fill-opacity:0; stroke-width: 2; stroke: #000000" x="639" y="339" width="106.15" height="8"/>
    <rect style="fill: #ffffff" x="639" y="347" width="106.15" height="8"/>
    <rect style="fill: none; fill-opacity:0; stroke-width: 2; stroke: #000000" x="639" y="347" width="106.15" height="8"/>
  </g>
  <g>
    <polyline style="fill: none; fill-opacity:0; stroke-width: 2; stroke: #000000" points="446.225,291.764 446.225,274.5 546.2,274.5 546.2,255 "/>
    <polygon style="fill: #ffffff" points="438.225,291.764 446.225,307.764 454.225,291.764 "/>
    <polygon style="fill: none; fill-opacity:0; stroke-width: 2; stroke: #000000" points="438.225,291.764 446.225,307.764 454.225,291.764 "/>
  </g>
  <g>
    <polyline style="fill: none; fill-opacity:0; stroke-width: 2; stroke: #000000" points="692.075,292.764 692.075,275 546.2,275 546.2,255 "/>
    <polygon style="fill: #ffffff" points="684.075,292.764 692.075,308.764 700.075,292.764 "/>
    <polygon style="fill: none; fill-opacity:0; stroke-width: 2; stroke: #000000" points="684.075,292.764 692.075,308.764 700.075,292.764 "/>
  </g>
  <g>
    <rect style="fill: #ffffff" x="774" y="310" width="131.35" height="28"/>
    <rect style="fill: none; fill-opacity:0; stroke-width: 2; stroke: #000000" x="774" y="310" width="131.35" height="28"/>
    <text font-size="16" style="fill: #000000;text-anchor:middle;font-family:sans-serif;font-style:normal;font-weight:700" x="839.675" y="329">RealNumGoal</text>
    <rect style="fill: #ffffff" x="774" y="338" width="131.35" height="8"/>
    <rect style="fill: none; fill-opacity:0; stroke-width: 2; stroke: #000000" x="774" y="338" width="131.35" height="8"/>
    <rect style="fill: #ffffff" x="774" y="346" width="131.35" height="8"/>
    <rect style="fill: none; fill-opacity:0; stroke-width: 2; stroke: #000000" x="774" y="346" width="131.35" height="8"/>
  </g>
  <g>
    <polyline style="fill: none; fill-opacity:0; stroke-width: 2; stroke: #000000" points="839.675,290.758 839.675,273.997 546.2,273.997 546.2,255 "/>
    <polygon style="fill: #ffffff" points="831.675,290.758 839.675,306.758 847.675,290.758 "/>
    <polygon style="fill: none; fill-opacity:0; stroke-width: 2; stroke: #000000" points="831.675,290.758 839.675,306.758 847.675,290.758 "/>
  </g>
  <g>
    <rect style="fill: #ffffff" x="697.002" y="38.75" width="418.1" height="28"/>
    <rect style="fill: none; fill-opacity:0; stroke-width: 2; stroke: #000000" x="697.002" y="38.75" width="418.1" height="28"/>
    <text font-size="16" style="fill: #000000;text-anchor:middle;font-family:sans-serif;font-style:normal;font-weight:700" x="906.052" y="57.75">MetricFactory</text>
    <rect style="fill: #ffffff" x="697.002" y="66.75" width="418.1" height="20"/>
    <rect style="fill: none; fill-opacity:0; stroke-width: 2; stroke: #000000" x="697.002" y="66.75" width="418.1" height="20"/>
    <text font-size="12.8" style="fill: #000000;text-anchor:start;font-family:monospace;font-style:normal;font-weight:normal" x="700.002" y="80.75">+goalMetricTable: map&lt;GoalTypeID, set&lt;MetricTypeID&gt; &gt;</text>
    <line style="fill: none; fill-opacity:0; stroke-width: 1; stroke: #000000" x1="700.002" y1="86.35" x2="1108.1" y2="86.35"/>
    <rect style="fill: #ffffff" x="697.002" y="86.75" width="418.1" height="20"/>
    <rect style="fill: none; fill-opacity:0; stroke-width: 2; stroke: #000000" x="697.002" y="86.75" width="418.1" height="20"/>
    <text font-size="12.8" style="fill: #000000;text-anchor:start;font-family:monospace;font-style:normal;font-weight:normal" x="700.002" y="100.75">+getMetric(goal:const Goal </text>
  </g>
  <g>
    <rect style="fill: #ffffff" x="21.104" y="298.75" width="302.6" height="28"/>
    <rect style="fill: none; fill-opacity:0; stroke-width: 2; stroke: #000000" x="21.104" y="298.75" width="302.6" height="28"/>
    <text font-size="16" style="fill: #000000;text-anchor:middle;font-family:sans-serif;font-style:normal;font-weight:700" x="172.404" y="317.75">Scene</text>
    <rect style="fill: #ffffff" x="21.104" y="326.75" width="302.6" height="52"/>
    <rect style="fill: none; fill-opacity:0; stroke-width: 2; stroke: #000000" x="21.104" y="326.75" width="302.6" height="52"/>
    <text font-size="12.8" style="fill: #000000;text-anchor:start;font-family:monospace;font-style:normal;font-weight:normal" x="24.104" y="340.75">+shapes: Lis&lt;Shap&gt;</text>
    <text font-size="12.8" style="fill: #000000;text-anchor:start;font-family:monospace;font-style:normal;font-weight:normal" x="24.104" y="356.75">+forces: List&lt;Force&gt;</text>
    <text font-size="12.8" style="fill: #000000;text-anchor:start;font-family:monospace;font-style:normal;font-weight:normal" x="24.104" y="372.75">+physConstraints: List&lt;PhysConstraint&gt;</text>
    <rect style="fill: #ffffff" x="21.104" y="378.75" width="302.6" height="8"/>
    <rect style="fill: none; fill-opacity:0; stroke-width: 2; stroke: #000000" x="21.104" y="378.75" width="302.6" height="8"/>
  </g>
  <g>
    <rect style="fill: #ffffff" x="58.104" y="498.75" width="487.4" height="28"/>
    <rect style="fill: none; fill-opacity:0; stroke-width: 2; stroke: #000000" x="58.104" y="498.75" width="487.4" height="28"/>
    <text font-size="16" style="fill: #000000;text-anchor:middle;font-family:sans-serif;font-style:normal;font-weight:700" x="301.804" y="517.75">Shape</text>
    <rect style="fill: #ffffff" x="58.104" y="526.75" width="487.4" height="20"/>
    <rect style="fill: none; fill-opacity:0; stroke-width: 2; stroke: #000000" x="58.104" y="526.75" width="487.4" height="20"/>
    <text font-size="12.8" style="fill: #000000;text-anchor:start;font-family:monospace;font-style:normal;font-weight:normal" x="61.104" y="540.75">+mesh: Mesh</text>
    <rect style="fill: #ffffff" x="58.104" y="546.75" width="487.4" height="20"/>
    <rect style="fill: none; fill-opacity:0; stroke-width: 2; stroke: #000000" x="58.104" y="546.75" width="487.4" height="20"/>
    <text font-size="12.8" style="fill: #000000;text-anchor:start;font-family:monospace;font-style:normal;font-weight:normal" x="61.104" y="560.75">+getMaterialProperty(position:const Vec3 </text>
  </g>
  <g>
    <rect style="fill: #ffffff" x="-119.896" y="496.75" width="125.5" height="28"/>
    <rect style="fill: none; fill-opacity:0; stroke-width: 2; stroke: #000000" x="-119.896" y="496.75" width="125.5" height="28"/>
    <text font-size="16" style="fill: #000000;text-anchor:middle;font-family:sans-serif;font-style:normal;font-weight:700" x="-57.146" y="515.75">Force</text>
    <rect style="fill: #ffffff" x="-119.896" y="524.75" width="125.5" height="68"/>
    <rect style="fill: none; fill-opacity:0; stroke-width: 2; stroke: #000000" x="-119.896" y="524.75" width="125.5" height="68"/>
    <text font-size="12.8" style="fill: #000000;text-anchor:start;font-family:monospace;font-style:normal;font-weight:normal" x="-116.896" y="538.75">+shape: Shape*</text>
    <text font-size="12.8" style="fill: #000000;text-anchor:start;font-family:monospace;font-style:normal;font-weight:normal" x="-116.896" y="554.75">+f: Vec3</text>
    <text font-size="12.8" style="fill: #000000;text-anchor:start;font-family:monospace;font-style:normal;font-weight:normal" x="-116.896" y="570.75">+position: Vec3</text>
    <text font-size="12.8" style="fill: #000000;text-anchor:start;font-family:monospace;font-style:normal;font-weight:normal" x="-116.896" y="586.75">+type: TypeID</text>
    <rect style="fill: #ffffff" x="-119.896" y="592.75" width="125.5" height="8"/>
    <rect style="fill: none; fill-opacity:0; stroke-width: 2; stroke: #000000" x="-119.896" y="592.75" width="125.5" height="8"/>
  </g>
  <g>
    <rect style="fill: #ffffff" x="915.104" y="496.75" width="164" height="28"/>
    <rect style="fill: none; fill-opacity:0; stroke-width: 2; stroke: #000000" x="915.104" y="496.75" width="164" height="28"/>
    <text font-size="16" style="fill: #000000;text-anchor:middle;font-family:sans-serif;font-style:normal;font-weight:700" x="997.104" y="515.75">PhysConstraint</text>
    <rect style="fill: #ffffff" x="915.104" y="524.75" width="164" height="52"/>
    <rect style="fill: none; fill-opacity:0; stroke-width: 2; stroke: #000000" x="915.104" y="524.75" width="164" height="52"/>
    <text font-size="12.8" style="fill: #000000;text-anchor:start;font-family:monospace;font-style:normal;font-weight:normal" x="918.104" y="538.75">+shape: Shape *</text>
    <text font-size="12.8" style="fill: #000000;text-anchor:start;font-family:monospace;font-style:normal;font-weight:normal" x="918.104" y="554.75">+vertices: List&lt;int&gt;</text>
    <text font-size="12.8" style="fill: #000000;text-anchor:start;font-family:monospace;font-style:normal;font-weight:normal" x="918.104" y="570.75">+type: typeID</text>
    <rect style="fill: #ffffff" x="915.104" y="576.75" width="164" height="8"/>
    <rect style="fill: none; fill-opacity:0; stroke-width: 2; stroke: #000000" x="915.104" y="576.75" width="164" height="8"/>
  </g>
  <g>
    <rect style="fill: #ffffff" x="-249.896" y="494.75" width="110.1" height="28"/>
    <rect style="fill: none; fill-opacity:0; stroke-width: 2; stroke: #000000" x="-249.896" y="494.75" width="110.1" height="28"/>
    <text font-size="16" style="fill: #000000;text-anchor:middle;font-family:sans-serif;font-style:normal;font-weight:700" x="-194.846" y="513.75">Camera</text>
    <rect style="fill: #ffffff" x="-249.896" y="522.75" width="110.1" height="52"/>
    <rect style="fill: none; fill-opacity:0; stroke-width: 2; stroke: #000000" x="-249.896" y="522.75" width="110.1" height="52"/>
    <text font-size="12.8" style="fill: #000000;text-anchor:start;font-family:monospace;font-style:normal;font-weight:normal" x="-246.896" y="536.75">+eye: Vec3</text>
    <text font-size="12.8" style="fill: #000000;text-anchor:start;font-family:monospace;font-style:normal;font-weight:normal" x="-246.896" y="552.75">+lookAt: Vec3</text>
    <text font-size="12.8" style="fill: #000000;text-anchor:start;font-family:monospace;font-style:normal;font-weight:normal" x="-246.896" y="568.75">+up: Vec3</text>
    <rect style="fill: #ffffff" x="-249.896" y="574.75" width="110.1" height="8"/>
    <rect style="fill: none; fill-opacity:0; stroke-width: 2; stroke: #000000" x="-249.896" y="574.75" width="110.1" height="8"/>
  </g>
  <g>
    <polyline style="fill: none; fill-opacity:0; stroke-width: 2; stroke-dasharray: 8; stroke: #000000" points="172.404,386.75 172.404,438.75 301.804,438.75 301.804,492.045 "/>
    <polyline style="fill: none; fill-opacity:0; stroke-width: 2; stroke: #000000" points="296.804,479.397 301.804,495.397 306.804,479.397 "/>
  </g>
  <g>
    <polyline style="fill: none; fill-opacity:0; stroke-width: 2; stroke-dasharray: 8; stroke: #000000" points="172.404,386.75 172.404,437.75 -57.146,437.75 -57.146,490.045 "/>
    <polyline style="fill: none; fill-opacity:0; stroke-width: 2; stroke: #000000" points="-62.146,477.397 -57.146,493.397 -52.146,477.397 "/>
  </g>
  <g>
    <polyline style="fill: none; fill-opacity:0; stroke-width: 2; stroke-dasharray: 8; stroke: #000000" points="172.404,386.75 172.404,437.75 997.104,437.75 997.104,490.045 "/>
    <polyline style="fill: none; fill-opacity:0; stroke-width: 2; stroke: #000000" points="992.104,477.397 997.104,493.397 1002.1,477.397 "/>
  </g>
  <g>
    <polyline style="fill: none; fill-opacity:0; stroke-width: 2; stroke-dasharray: 8; stroke: #000000" points="172.404,386.75 172.404,436.75 -194.846,436.75 -194.846,488.045 "/>
    <polyline style="fill: none; fill-opacity:0; stroke-width: 2; stroke: #000000" points="-199.846,475.397 -194.846,491.397 -189.846,475.397 "/>
  </g>
  <g>
    <polyline style="fill: none; fill-opacity:0; stroke-width: 2; stroke-dasharray: 8; stroke: #000000" points="-57.146,600.75 -57.146,625.5 301.804,625.5 301.804,573.455 "/>
    <polyline style="fill: none; fill-opacity:0; stroke-width: 2; stroke: #000000" points="306.804,586.103 301.804,570.103 296.804,586.103 "/>
  </g>
  <g>
    <rect style="fill: #ffffff" x="700.104" y="124.5" width="364.2" height="28"/>
    <rect style="fill: none; fill-opacity:0; stroke-width: 2; stroke: #000000" x="700.104" y="124.5" width="364.2" height="28"/>
    <text font-size="16" style="fill: #000000;text-anchor:middle;font-family:sans-serif;font-style:normal;font-weight:700" x="882.204" y="143.5">SimulatorFactory</text>
    <rect style="fill: #ffffff" x="700.104" y="152.5" width="364.2" height="8"/>
    <rect style="fill: none; fill-opacity:0; stroke-width: 2; stroke: #000000" x="700.104" y="152.5" width="364.2" height="8"/>
    <rect style="fill: #ffffff" x="700.104" y="160.5" width="364.2" height="20"/>
    <rect style="fill: none; fill-opacity:0; stroke-width: 2; stroke: #000000" x="700.104" y="160.5" width="364.2" height="20"/>
    <text font-size="12.8" style="fill: #000000;text-anchor:start;font-family:monospace;font-style:normal;font-weight:normal" x="703.104" y="174.5">+getSimulator(scene:const Scene </text>
  </g>
  <g>
    <line style="fill: none; fill-opacity:0; stroke-width: 2; stroke-dasharray: 8; stroke: #000000" x1="915.104" y1="550.75" x2="552.204" y2="537.004"/>
    <polyline style="fill: none; fill-opacity:0; stroke-width: 2; stroke: #000000" points="565.032,532.486 548.854,536.877 564.653,542.479 "/>
    <text font-size="12.7998" style="fill: #000000;text-anchor:start;font-family:monospace;font-style:normal;font-weight:normal" x="603.104" y="561.5">{Fix Vertex positions or velocities}</text>
  </g>
  <g>
    <rect style="fill: #ffffff" x="386.104" y="687" width="318" height="28"/>
    <rect style="fill: none; fill-opacity:0; stroke-width: 2; stroke: #000000" x="386.104" y="687" width="318" height="28"/>
    <text font-size="16" style="fill: #000000;text-anchor:middle;font-family:sans-serif;font-style:normal;font-weight:700" x="545.104" y="706">MaterialProperty</text>
    <rect style="fill: #ffffff" x="386.104" y="715" width="318" height="20"/>
    <rect style="fill: none; fill-opacity:0; stroke-width: 2; stroke: #000000" x="386.104" y="715" width="318" height="20"/>
    <text font-size="12.8" style="fill: #000000;text-anchor:start;font-family:monospace;font-style:normal;font-weight:normal" x="389.104" y="729">+properties: map&lt;PropertyType, Property&gt;</text>
    <rect style="fill: #ffffff" x="386.104" y="735" width="318" height="8"/>
    <rect style="fill: none; fill-opacity:0; stroke-width: 2; stroke: #000000" x="386.104" y="735" width="318" height="8"/>
  </g>
  <g>
    <polyline style="fill: none; fill-opacity:0; stroke-width: 2; stroke-dasharray: 8; stroke: #000000" points="545.504,566.75 545.504,622.875 545.104,622.875 545.104,680.295 "/>
    <polyline style="fill: none; fill-opacity:0; stroke-width: 2; stroke: #000000" points="540.104,667.647 545.104,683.647 550.104,667.647 "/>
  </g>
</svg>
