<?xml version="1.0" encoding="UTF-8" standalone="no"?>
<!DOCTYPE svg PUBLIC "-//W3C//DTD SVG 1.0//EN" "http://www.w3.org/TR/2001/PR-SVG-20010719/DTD/svg10.dtd">
<svg width="54cm" height="29cm" viewBox="-19 59 1061 563" xmlns="http://www.w3.org/2000/svg" xmlns:xlink="http://www.w3.org/1999/xlink">
  <rect style="fill: none; fill-opacity:0; stroke-width: 2; stroke: #000000" x="89.4383" y="236.211" width="920.386" height="384.948"/>
  <g>
    <rect style="fill: #ffffff" x="395.581" y="60.1778" width="310.3" height="28"/>
    <rect style="fill: none; fill-opacity:0; stroke-width: 2; stroke: #000000" x="395.581" y="60.1778" width="310.3" height="28"/>
    <text font-size="16" style="fill: #000000;text-anchor:middle;font-family:sans-serif;font-style:normal;font-weight:700" x="550.731" y="79.1778">Manager</text>
    <rect style="fill: #ffffff" x="395.581" y="88.1778" width="310.3" height="20"/>
    <rect style="fill: none; fill-opacity:0; stroke-width: 2; stroke: #000000" x="395.581" y="88.1778" width="310.3" height="20"/>
    <text font-size="12.8" style="fill: #000000;text-anchor:start;font-family:monospace;font-style:normal;font-weight:normal" x="398.581" y="102.178">+errorFunction: ErrorFunction</text>
    <rect style="fill: #ffffff" x="395.581" y="108.178" width="310.3" height="68"/>
    <rect style="fill: none; fill-opacity:0; stroke-width: 2; stroke: #000000" x="395.581" y="108.178" width="310.3" height="68"/>
    <text font-size="12.8" style="fill: #000000;text-anchor:start;font-family:monospace;font-style:normal;font-weight:normal" x="398.581" y="122.178">+loadMaterialLib(filename:const char *)</text>
    <text font-size="12.8" style="fill: #000000;text-anchor:start;font-family:monospace;font-style:normal;font-weight:normal" x="398.581" y="138.178">+addObjective(obj :Objective *): void</text>
    <text font-size="12.8" style="fill: #000000;text-anchor:start;font-family:monospace;font-style:normal;font-weight:normal" x="398.581" y="154.178">+run(): void</text>
    <text font-size="12.8" style="fill: #000000;text-anchor:start;font-family:monospace;font-style:normal;font-weight:normal" x="398.581" y="170.178">+getOutput(): Output</text>
  </g>
  <g>
    <rect style="fill: #ffffff" x="145.564" y="275.65" width="279.5" height="28"/>
    <rect style="fill: none; fill-opacity:0; stroke-width: 2; stroke: #000000" x="145.564" y="275.65" width="279.5" height="28"/>
    <text font-size="16" style="fill: #000000;text-anchor:middle;font-family:sans-serif;font-style:normal;font-weight:700" x="285.314" y="294.65">Generator</text>
    <rect style="fill: #ffffff" x="145.564" y="303.65" width="279.5" height="20"/>
    <rect style="fill: none; fill-opacity:0; stroke-width: 2; stroke: #000000" x="145.564" y="303.65" width="279.5" height="20"/>
    <text font-size="12.8" style="fill: #000000;text-anchor:start;font-family:monospace;font-style:normal;font-weight:normal" x="148.564" y="317.65">+matlib: const MaterialLibrary*</text>
    <rect style="fill: #ffffff" x="145.564" y="323.65" width="279.5" height="52"/>
    <rect style="fill: none; fill-opacity:0; stroke-width: 2; stroke: #000000" x="145.564" y="323.65" width="279.5" height="52"/>
    <text font-size="12.8" style="fill: #000000;text-anchor:start;font-family:monospace;font-style:normal;font-weight:normal" x="148.564" y="337.65">+setShape(shapeInput:Shape*)</text>
    <text font-size="12.8" style="fill: #000000;text-anchor:start;font-family:monospace;font-style:normal;font-weight:normal" x="148.564" y="353.65">+setState(stateInput:const State </text>
    <text font-size="12.8" style="fill: #000000;text-anchor:start;font-family:monospace;font-style:normal;font-weight:normal" x="148.564" y="369.65">+getShape(): const Shape </text>
  </g>
  <g>
    <polyline style="fill: none; fill-opacity:0; stroke-width: 2; stroke-dasharray: 8; stroke: #000000" points="550.731,176.178 550.731,202.194 549.631,202.194 549.631,229.506 "/>
    <polyline style="fill: none; fill-opacity:0; stroke-width: 2; stroke: #000000" points="544.631,216.858 549.631,232.858 554.631,216.858 "/>
  </g>
  <g>
    <rect style="fill: #ffffff" x="-17.7869" y="60.6001" width="325.7" height="28"/>
    <rect style="fill: none; fill-opacity:0; stroke-width: 2; stroke: #000000" x="-17.7869" y="60.6001" width="325.7" height="28"/>
    <text font-size="16" style="fill: #000000;text-anchor:middle;font-family:sans-serif;font-style:normal;font-weight:700" x="145.063" y="79.6001">MaterialLibrary</text>
    <rect style="fill: #ffffff" x="-17.7869" y="88.6001" width="325.7" height="8"/>
    <rect style="fill: none; fill-opacity:0; stroke-width: 2; stroke: #000000" x="-17.7869" y="88.6001" width="325.7" height="8"/>
    <rect style="fill: #ffffff" x="-17.7869" y="96.6001" width="325.7" height="20"/>
    <rect style="fill: none; fill-opacity:0; stroke-width: 2; stroke: #000000" x="-17.7869" y="96.6001" width="325.7" height="20"/>
    <text font-size="12.8" style="fill: #000000;text-anchor:start;font-family:monospace;font-style:normal;font-weight:normal" x="-14.7869" y="110.6">+MaterialLibrary(const char * filename)()</text>
  </g>
  <g>
    <polyline style="fill: none; fill-opacity:0; stroke-width: 2; stroke-dasharray: 8; stroke: #000000" points="395.581,118.178 349.85,118.178 349.85,106.6 314.618,106.6 "/>
    <polyline style="fill: none; fill-opacity:0; stroke-width: 2; stroke: #000000" points="327.266,101.6 311.266,106.6 327.266,111.6 "/>
  </g>
  <g>
    <polyline style="fill: none; fill-opacity:0; stroke-width: 2; stroke-dasharray: 8; stroke: #000000" points="145.564,275.65 145.564,200.125 145.063,200.125 145.063,123.305 "/>
    <polyline style="fill: none; fill-opacity:0; stroke-width: 2; stroke: #000000" points="150.063,135.953 145.063,119.953 140.063,135.953 "/>
  </g>
  <g>
    <rect style="fill: #ffffff" x="103.521" y="468.096" width="364.2" height="28"/>
    <rect style="fill: none; fill-opacity:0; stroke-width: 2; stroke: #000000" x="103.521" y="468.096" width="364.2" height="28"/>
    <text font-size="16" style="fill: #000000;text-anchor:middle;font-family:sans-serif;font-style:normal;font-weight:700" x="285.621" y="487.096">Optimizer</text>
    <rect style="fill: #ffffff" x="103.521" y="496.096" width="364.2" height="20"/>
    <rect style="fill: none; fill-opacity:0; stroke-width: 2; stroke: #000000" x="103.521" y="496.096" width="364.2" height="20"/>
    <text font-size="12.8" style="fill: #000000;text-anchor:start;font-family:monospace;font-style:normal;font-weight:normal" x="106.521" y="510.096">+errorFunction: const ErrorFunction *</text>
    <rect style="fill: #ffffff" x="103.521" y="516.096" width="364.2" height="68"/>
    <rect style="fill: none; fill-opacity:0; stroke-width: 2; stroke: #000000" x="103.521" y="516.096" width="364.2" height="68"/>
    <text font-size="12.8" style="fill: #000000;text-anchor:start;font-family:monospace;font-style:normal;font-weight:normal" x="106.521" y="530.096">+getState(): State *</text>
    <text font-size="12.8" style="fill: #000000;text-anchor:start;font-family:monospace;font-style:normal;font-weight:normal" x="106.521" y="546.096">+run(): void</text>
    <text font-size="12.8" style="fill: #000000;text-anchor:start;font-family:monospace;font-style:normal;font-weight:normal" x="106.521" y="562.096">+setState(stateInput:State*): void</text>
    <text font-size="12.8" style="fill: #000000;text-anchor:start;font-family:monospace;font-style:normal;font-weight:normal" x="106.521" y="578.096">+setErrorFunction(errFun:const ErrorFunction*)</text>
  </g>
  <g>
    <rect style="fill: #ffffff" x="651.865" y="285.21" width="271.8" height="28"/>
    <rect style="fill: none; fill-opacity:0; stroke-width: 2; stroke: #000000" x="651.865" y="285.21" width="271.8" height="28"/>
    <text font-size="16" style="fill: #000000;text-anchor:middle;font-family:sans-serif;font-style:normal;font-weight:700" x="787.765" y="304.21">Simulator</text>
    <rect style="fill: #ffffff" x="651.865" y="313.21" width="271.8" height="8"/>
    <rect style="fill: none; fill-opacity:0; stroke-width: 2; stroke: #000000" x="651.865" y="313.21" width="271.8" height="8"/>
    <rect style="fill: #ffffff" x="651.865" y="321.21" width="271.8" height="52"/>
    <rect style="fill: none; fill-opacity:0; stroke-width: 2; stroke: #000000" x="651.865" y="321.21" width="271.8" height="52"/>
    <text font-size="12.8" style="fill: #000000;text-anchor:start;font-family:monospace;font-style:normal;font-weight:normal" x="654.865" y="335.21">+setScene(sceneInput:const scene</text>
    <text font-size="12.8" style="fill: #000000;text-anchor:start;font-family:monospace;font-style:normal;font-weight:normal" x="654.865" y="351.21">+setShape(const Shape</text>
    <text font-size="12.8" style="fill: #000000;text-anchor:start;font-family:monospace;font-style:normal;font-weight:normal" x="654.865" y="367.21">+simulate(): Goal *</text>
  </g>
  <g>
    <rect style="fill: #ffffff" x="694.394" y="499.986" width="325.7" height="28"/>
    <rect style="fill: none; fill-opacity:0; stroke-width: 2; stroke: #000000" x="694.394" y="499.986" width="325.7" height="28"/>
    <text font-size="16" style="fill: #000000;text-anchor:middle;font-family:sans-serif;font-style:normal;font-weight:700" x="857.244" y="518.986">Metric</text>
    <rect style="fill: #ffffff" x="694.394" y="527.986" width="325.7" height="8"/>
    <rect style="fill: none; fill-opacity:0; stroke-width: 2; stroke: #000000" x="694.394" y="527.986" width="325.7" height="8"/>
    <rect style="fill: #ffffff" x="694.394" y="535.986" width="325.7" height="36"/>
    <rect style="fill: none; fill-opacity:0; stroke-width: 2; stroke: #000000" x="694.394" y="535.986" width="325.7" height="36"/>
    <text font-size="12.8" style="fill: #000000;text-anchor:start;font-family:monospace;font-style:normal;font-weight:normal" x="697.394" y="549.986">+setGoal(const Goal </text>
    <text font-size="12.8" style="fill: #000000;text-anchor:start;font-family:monospace;font-style:normal;font-weight:normal" x="697.394" y="565.986">+getError(const Goal </text>
  </g>
  <g>
    <rect style="fill: #ffffff" x="784.116" y="138.036" width="256.4" height="28"/>
    <rect style="fill: none; fill-opacity:0; stroke-width: 2; stroke: #000000" x="784.116" y="138.036" width="256.4" height="28"/>
    <text font-size="16" style="fill: #000000;text-anchor:middle;font-family:sans-serif;font-style:normal;font-weight:700" x="912.316" y="157.036">ErrorFunction</text>
    <rect style="fill: #ffffff" x="784.116" y="166.036" width="256.4" height="8"/>
    <rect style="fill: none; fill-opacity:0; stroke-width: 2; stroke: #000000" x="784.116" y="166.036" width="256.4" height="8"/>
    <rect style="fill: #ffffff" x="784.116" y="174.036" width="256.4" height="20"/>
    <rect style="fill: none; fill-opacity:0; stroke-width: 2; stroke: #000000" x="784.116" y="174.036" width="256.4" height="20"/>
    <text font-size="12.8" style="fill: #000000;text-anchor:start;font-family:monospace;font-style:normal;font-weight:normal" x="787.116" y="188.036">+getError(const State </text>
  </g>
  <g>
    <polyline style="fill: none; fill-opacity:0; stroke-width: 2; stroke-dasharray: 8; stroke: #000000" points="705.881,118.178 726.881,118.178 726.881,107.532 912.316,107.532 912.316,131.33 "/>
    <polyline style="fill: none; fill-opacity:0; stroke-width: 2; stroke: #000000" points="907.316,118.683 912.316,134.683 917.316,118.683 "/>
  </g>
  <g>
    <polyline style="fill: none; fill-opacity:0; stroke-width: 2; stroke-dasharray: 8; stroke: #000000" points="467.721,584.096 580.165,584.096 580.165,194.036 777.411,194.036 "/>
    <polyline style="fill: none; fill-opacity:0; stroke-width: 2; stroke: #000000" points="764.764,199.036 780.764,194.036 764.764,189.036 "/>
  </g>
  <g>
    <polyline style="fill: none; fill-opacity:0; stroke-width: 2; stroke: #000000" points="285.314,375.65 285.314,417.235 285.621,417.235 285.621,468.096 "/>
    <text font-size="12.7998" style="fill: #000000;text-anchor:middle;font-family:monospace;font-style:normal;font-weight:normal" x="285.468" y="414.235">Translate between abstract search space and concrete shape</text>
  </g>
  <g>
    <polyline style="fill: none; fill-opacity:0; stroke-width: 2; stroke: #000000" points="425.064,333.65 538.464,333.65 538.464,331.21 651.865,331.21 "/>
    <text font-size="12.7998" style="fill: #000000;text-anchor:start;font-family:monospace;font-style:normal;font-weight:normal" x="540.464" y="329.43">Concrete Shape</text>
    <polygon style="fill: #000000" points="650.264,329.43 650.264,321.43 658.264,325.43 "/>
  </g>
  <g>
    <polyline style="fill: none; fill-opacity:0; stroke-width: 2; stroke: #000000" points="787.765,373.21 787.765,436.598 857.244,436.598 857.244,499.986 "/>
    <text font-size="12.7998" style="fill: #000000;text-anchor:middle;font-family:monospace;font-style:normal;font-weight:normal" x="822.505" y="433.598">Simulated result</text>
    <polygon style="fill: #000000" points="886.105,433.598 886.105,425.598 894.105,429.598 "/>
  </g>
  <g>
    <polyline style="fill: none; fill-opacity:0; stroke-width: 2; stroke: #000000" points="694.394,545.986 581.058,545.986 581.058,542.096 467.721,542.096 "/>
    <text font-size="12.7998" style="fill: #000000;text-anchor:start;font-family:monospace;font-style:normal;font-weight:normal" x="583.058" y="541.041">Error Measure</text>
    <polygon style="fill: #000000" points="579.058,541.041 579.058,533.041 571.058,537.041 "/>
  </g>
</svg>
